<?xml version="1.0" encoding="UTF-8"?><svg xmlns="http://www.w3.org/2000/svg" xmlns:xlink="http://www.w3.org/1999/xlink" contentScriptType="text/ecmascript" width="375pt" zoomAndPan="magnify" contentStyleType="text/css" viewBox="0 0 375 374.999991" height="374.999991pt" preserveAspectRatio="xMidYMid meet" version="1.2"><defs/><g xml:id="surface1" id="surface1"><path style=" stroke:none;fill-rule:nonzero;fill:rgb(10.198975%,12.939453%,19.999695%);fill-opacity:1;" d="M 187.5 0 C 184.429688 0 181.363281 0.0742188 178.300781 0.226562 C 175.234375 0.375 172.175781 0.601562 169.121094 0.902344 C 166.066406 1.203125 163.023438 1.578125 159.988281 2.03125 C 156.953125 2.480469 153.929688 3.003906 150.921875 3.601562 C 147.910156 4.203125 144.917969 4.875 141.941406 5.617188 C 138.964844 6.363281 136.007812 7.183594 133.070312 8.074219 C 130.136719 8.964844 127.222656 9.925781 124.332031 10.960938 C 121.445312 11.996094 118.582031 13.097656 115.746094 14.273438 C 112.910156 15.445312 110.105469 16.691406 107.332031 18.003906 C 104.558594 19.3125 101.820312 20.691406 99.113281 22.140625 C 96.40625 23.585938 93.738281 25.097656 91.105469 26.675781 C 88.472656 28.253906 85.882812 29.894531 83.332031 31.597656 C 80.777344 33.304688 78.269531 35.070312 75.804688 36.898438 C 73.339844 38.726562 70.921875 40.613281 68.550781 42.558594 C 66.179688 44.507812 63.855469 46.511719 61.582031 48.570312 C 59.308594 50.632812 57.085938 52.746094 54.917969 54.917969 C 52.746094 57.085938 50.632812 59.308594 48.570312 61.582031 C 46.511719 63.855469 44.507812 66.179688 42.558594 68.550781 C 40.613281 70.921875 38.726562 73.339844 36.898438 75.804688 C 35.070312 78.269531 33.304688 80.777344 31.597656 83.332031 C 29.894531 85.882812 28.253906 88.472656 26.675781 91.105469 C 25.097656 93.738281 23.585938 96.40625 22.140625 99.113281 C 20.691406 101.820312 19.3125 104.558594 18.003906 107.332031 C 16.691406 110.105469 15.445312 112.910156 14.273438 115.746094 C 13.097656 118.582031 11.996094 121.445312 10.960938 124.332031 C 9.925781 127.222656 8.964844 130.136719 8.074219 133.070312 C 7.183594 136.007812 6.363281 138.964844 5.621094 141.941406 C 4.875 144.917969 4.203125 147.910156 3.601562 150.921875 C 3.003906 153.929688 2.480469 156.953125 2.03125 159.988281 C 1.578125 163.023438 1.203125 166.066406 0.902344 169.121094 C 0.601562 172.175781 0.375 175.234375 0.226562 178.300781 C 0.0742188 181.363281 0 184.429688 0 187.5 C 0 190.570312 0.0742188 193.636719 0.226562 196.699219 C 0.375 199.765625 0.601562 202.824219 0.902344 205.878906 C 1.203125 208.933594 1.578125 211.976562 2.03125 215.011719 C 2.480469 218.046875 3.003906 221.070312 3.601562 224.078125 C 4.203125 227.089844 4.875 230.082031 5.621094 233.058594 C 6.363281 236.035156 7.183594 238.992188 8.074219 241.929688 C 8.964844 244.863281 9.925781 247.777344 10.960938 250.667969 C 11.996094 253.554688 13.097656 256.417969 14.273438 259.253906 C 15.445312 262.089844 16.691406 264.890625 18.003906 267.667969 C 19.3125 270.441406 20.691406 273.179688 22.140625 275.886719 C 23.585938 278.59375 25.097656 281.261719 26.675781 283.894531 C 28.253906 286.527344 29.894531 289.117188 31.597656 291.667969 C 33.304688 294.222656 35.070312 296.730469 36.898438 299.195312 C 38.726562 301.660156 40.613281 304.078125 42.558594 306.449219 C 44.507812 308.820312 46.511719 311.144531 48.570312 313.417969 C 50.632812 315.691406 52.746094 317.914062 54.917969 320.082031 C 57.085938 322.253906 59.308594 324.367188 61.582031 326.429688 C 63.855469 328.488281 66.179688 330.492188 68.550781 332.4375 C 70.921875 334.386719 73.339844 336.273438 75.804688 338.101562 C 78.269531 339.929688 80.777344 341.695312 83.332031 343.402344 C 85.882812 345.105469 88.472656 346.746094 91.105469 348.324219 C 93.738281 349.902344 96.40625 351.414062 99.113281 352.859375 C 101.820312 354.308594 104.558594 355.6875 107.332031 356.996094 C 110.105469 358.308594 112.910156 359.554688 115.746094 360.726562 C 118.582031 361.902344 121.445312 363.003906 124.332031 364.039062 C 127.222656 365.074219 130.136719 366.035156 133.070312 366.925781 C 136.007812 367.816406 138.964844 368.636719 141.941406 369.378906 C 144.917969 370.125 147.910156 370.796875 150.921875 371.398438 C 153.929688 371.996094 156.953125 372.519531 159.988281 372.96875 C 163.023438 373.421875 166.066406 373.796875 169.121094 374.097656 C 172.175781 374.398438 175.234375 374.625 178.300781 374.773438 C 181.363281 374.925781 184.429688 375 187.5 375 C 190.570312 375 193.636719 374.925781 196.699219 374.773438 C 199.765625 374.625 202.824219 374.398438 205.878906 374.097656 C 208.933594 373.796875 211.976562 373.421875 215.011719 372.96875 C 218.046875 372.519531 221.070312 371.996094 224.078125 371.398438 C 227.089844 370.796875 230.082031 370.125 233.058594 369.378906 C 236.035156 368.636719 238.992188 367.816406 241.929688 366.925781 C 244.863281 366.035156 247.777344 365.074219 250.667969 364.039062 C 253.554688 363.003906 256.417969 361.902344 259.253906 360.726562 C 262.089844 359.554688 264.890625 358.308594 267.667969 356.996094 C 270.441406 355.6875 273.179688 354.308594 275.886719 352.859375 C 278.59375 351.414062 281.261719 349.902344 283.894531 348.324219 C 286.527344 346.746094 289.117188 345.105469 291.667969 343.402344 C 294.222656 341.695312 296.730469 339.929688 299.195312 338.101562 C 301.660156 336.273438 304.078125 334.386719 306.449219 332.4375 C 308.820312 330.492188 311.144531 328.488281 313.417969 326.429688 C 315.691406 324.367188 317.914062 322.253906 320.082031 320.082031 C 322.253906 317.914062 324.367188 315.691406 326.429688 313.417969 C 328.488281 311.144531 330.492188 308.820312 332.4375 306.449219 C 334.386719 304.078125 336.273438 301.660156 338.101562 299.195312 C 339.929688 296.730469 341.695312 294.222656 343.402344 291.667969 C 345.105469 289.117188 346.746094 286.527344 348.324219 283.894531 C 349.902344 281.261719 351.414062 278.59375 352.859375 275.886719 C 354.308594 273.179688 355.6875 270.441406 356.996094 267.667969 C 358.308594 264.890625 359.554688 262.089844 360.726562 259.253906 C 361.902344 256.417969 363.003906 253.554688 364.039062 250.667969 C 365.074219 247.777344 366.035156 244.863281 366.925781 241.929688 C 367.816406 238.992188 368.636719 236.035156 369.378906 233.058594 C 370.125 230.082031 370.796875 227.089844 371.398438 224.078125 C 371.996094 221.070312 372.519531 218.046875 372.96875 215.011719 C 373.421875 211.976562 373.796875 208.933594 374.097656 205.878906 C 374.398438 202.824219 374.625 199.765625 374.773438 196.699219 C 374.925781 193.636719 375 190.570312 375 187.5 C 375 184.429688 374.925781 181.363281 374.773438 178.300781 C 374.625 175.234375 374.398438 172.175781 374.097656 169.121094 C 373.796875 166.066406 373.421875 163.023438 372.96875 159.988281 C 372.519531 156.953125 371.996094 153.929688 371.398438 150.921875 C 370.796875 147.910156 370.125 144.917969 369.378906 141.941406 C 368.636719 138.964844 367.816406 136.007812 366.925781 133.070312 C 366.035156 130.136719 365.074219 127.222656 364.039062 124.332031 C 363.003906 121.445312 361.902344 118.582031 360.726562 115.746094 C 359.554688 112.910156 358.308594 110.105469 356.996094 107.332031 C 355.6875 104.558594 354.308594 101.820312 352.859375 99.113281 C 351.414062 96.40625 349.902344 93.738281 348.324219 91.105469 C 346.746094 88.472656 345.105469 85.882812 343.402344 83.332031 C 341.695312 80.777344 339.929688 78.269531 338.101562 75.804688 C 336.273438 73.339844 334.386719 70.921875 332.4375 68.550781 C 330.492188 66.179688 328.488281 63.855469 326.429688 61.582031 C 324.367188 59.308594 322.253906 57.085938 320.082031 54.917969 C 317.914062 52.746094 315.691406 50.632812 313.417969 48.570312 C 311.144531 46.511719 308.820312 44.507812 306.449219 42.558594 C 304.078125 40.613281 301.660156 38.726562 299.195312 36.898438 C 296.730469 35.070312 294.222656 33.304688 291.667969 31.597656 C 289.117188 29.894531 286.527344 28.253906 283.894531 26.675781 C 281.261719 25.097656 278.59375 23.585938 275.886719 22.140625 C 273.179688 20.691406 270.441406 19.3125 267.667969 18.003906 C 264.890625 16.691406 262.089844 15.445312 259.253906 14.273438 C 256.417969 13.097656 253.554688 11.996094 250.667969 10.960938 C 247.777344 9.925781 244.863281 8.964844 241.929688 8.074219 C 238.992188 7.183594 236.035156 6.363281 233.058594 5.617188 C 230.082031 4.875 227.089844 4.203125 224.078125 3.601562 C 221.070312 3.003906 218.046875 2.480469 215.011719 2.03125 C 211.976562 1.578125 208.933594 1.203125 205.878906 0.902344 C 202.824219 0.601562 199.765625 0.375 196.699219 0.226562 C 193.636719 0.0742188 190.570312 0 187.5 0 Z M 187.5 0 "/><g clip-rule="nonzero"><path style=" stroke:none;fill-rule:nonzero;fill:rgb(100%,100%,100%);fill-opacity:1;" d="M 107.609375 341.433594 C 106.8125 341.433594 106.023438 341.359375 105.246094 341.203125 C 104.464844 341.046875 103.707031 340.816406 102.96875 340.511719 C 102.234375 340.207031 101.535156 339.835938 100.875 339.390625 C 100.210938 338.949219 99.597656 338.445312 99.035156 337.882812 C 98.472656 337.320312 97.972656 336.707031 97.527344 336.046875 C 97.085938 335.386719 96.714844 334.6875 96.410156 333.949219 C 96.105469 333.214844 95.875 332.457031 95.71875 331.675781 C 95.5625 330.894531 95.484375 330.105469 95.484375 329.308594 L 95.484375 272.6875 C 93.945312 272.074219 92.417969 271.429688 90.902344 270.753906 C 89.390625 270.074219 87.894531 269.367188 86.410156 268.625 C 84.925781 267.882812 83.460938 267.105469 82.011719 266.300781 C 80.5625 265.496094 79.132812 264.660156 77.71875 263.792969 C 76.304688 262.925781 74.914062 262.027344 73.539062 261.097656 C 72.164062 260.171875 70.808594 259.214844 69.476562 258.230469 C 68.144531 257.242188 66.832031 256.230469 65.542969 255.1875 C 64.253906 254.144531 62.988281 253.074219 61.746094 251.976562 C 60.503906 250.878906 59.285156 249.753906 58.089844 248.605469 C 56.894531 247.457031 55.726562 246.28125 54.582031 245.078125 C 53.4375 243.878906 52.320312 242.65625 51.230469 241.40625 C 50.140625 240.15625 49.078125 238.886719 48.039062 237.589844 C 47.003906 236.296875 45.996094 234.980469 45.019531 233.640625 C 44.039062 232.304688 43.089844 230.945312 42.167969 229.566406 C 41.25 228.1875 40.359375 226.789062 39.5 225.371094 C 38.640625 223.953125 37.808594 222.519531 37.011719 221.066406 C 36.214844 219.609375 35.449219 218.140625 34.710938 216.65625 C 33.976562 215.167969 33.277344 213.667969 32.605469 212.148438 C 31.9375 210.632812 31.300781 209.101562 30.695312 207.558594 C 30.09375 206.015625 29.523438 204.457031 28.988281 202.886719 C 28.449219 201.320312 27.949219 199.738281 27.480469 198.148438 C 27.011719 196.558594 26.578125 194.957031 26.179688 193.347656 C 25.78125 191.742188 25.414062 190.125 25.085938 188.496094 C 24.757812 186.871094 24.460938 185.242188 24.203125 183.605469 C 23.945312 181.964844 23.722656 180.324219 23.535156 178.675781 C 23.347656 177.027344 23.195312 175.378906 23.078125 173.722656 C 22.960938 172.070312 22.878906 170.414062 22.835938 168.757812 C 22.789062 167.097656 22.78125 165.441406 22.808594 163.785156 C 22.832031 162.125 22.894531 160.46875 22.992188 158.816406 C 23.089844 157.160156 23.226562 155.507812 23.394531 153.859375 C 23.5625 152.207031 23.769531 150.5625 24.007812 148.921875 C 24.25 147.28125 24.523438 145.648438 24.835938 144.019531 C 25.148438 142.390625 25.492188 140.769531 25.875 139.15625 C 26.253906 137.542969 26.671875 135.9375 27.121094 134.339844 C 27.570312 132.746094 28.054688 131.160156 28.574219 129.585938 C 29.09375 128.011719 29.644531 126.449219 30.230469 124.898438 C 30.816406 123.347656 31.4375 121.808594 32.089844 120.285156 C 32.742188 118.757812 33.429688 117.25 34.144531 115.753906 C 34.863281 114.261719 35.613281 112.78125 36.394531 111.320312 C 37.175781 109.859375 37.988281 108.414062 38.832031 106.984375 C 39.675781 105.558594 40.550781 104.152344 41.457031 102.761719 C 42.359375 101.371094 43.296875 100.003906 44.257812 98.652344 C 45.222656 97.304688 46.214844 95.976562 47.238281 94.671875 C 48.257812 93.363281 49.308594 92.082031 50.382812 90.820312 C 51.460938 89.558594 52.566406 88.324219 53.695312 87.109375 C 54.824219 85.894531 55.980469 84.707031 57.160156 83.542969 C 58.34375 82.382812 59.550781 81.242188 60.78125 80.132812 C 62.011719 79.019531 63.265625 77.9375 64.542969 76.878906 C 65.820312 75.824219 67.117188 74.792969 68.441406 73.792969 C 69.761719 72.792969 71.105469 71.820312 72.46875 70.878906 C 73.832031 69.933594 75.214844 69.019531 76.621094 68.136719 C 78.023438 67.253906 79.445312 66.402344 80.882812 65.582031 C 82.324219 64.757812 83.78125 63.96875 85.253906 63.210938 C 86.730469 62.449219 88.21875 61.722656 89.726562 61.027344 C 91.230469 60.335938 92.75 59.671875 94.285156 59.042969 C 95.816406 58.414062 97.363281 57.820312 98.925781 57.257812 C 100.484375 56.695312 102.054688 56.167969 103.636719 55.671875 C 105.222656 55.179688 106.8125 54.71875 108.417969 54.292969 C 110.019531 53.867188 111.628906 53.476562 113.25 53.121094 C 114.867188 52.765625 116.496094 52.445312 118.128906 52.160156 C 119.761719 51.871094 121.398438 51.621094 123.042969 51.40625 C 124.6875 51.191406 126.335938 51.011719 127.988281 50.871094 C 129.640625 50.726562 131.292969 50.617188 132.949219 50.546875 C 134.605469 50.472656 136.261719 50.4375 137.921875 50.433594 L 247.042969 50.433594 C 248.925781 50.433594 250.8125 50.480469 252.695312 50.574219 C 254.578125 50.667969 256.457031 50.804688 258.332031 50.988281 C 260.207031 51.175781 262.078125 51.40625 263.941406 51.683594 C 265.808594 51.957031 267.664062 52.28125 269.511719 52.648438 C 271.363281 53.015625 273.199219 53.429688 275.027344 53.886719 C 276.859375 54.34375 278.675781 54.847656 280.476562 55.394531 C 282.28125 55.941406 284.070312 56.535156 285.847656 57.167969 C 287.621094 57.804688 289.378906 58.480469 291.121094 59.203125 C 292.863281 59.925781 294.585938 60.6875 296.289062 61.496094 C 297.992188 62.300781 299.675781 63.148438 301.339844 64.035156 C 303 64.925781 304.640625 65.855469 306.257812 66.824219 C 307.875 67.792969 309.464844 68.800781 311.035156 69.847656 C 312.601562 70.894531 314.140625 71.980469 315.65625 73.105469 C 317.171875 74.226562 318.65625 75.386719 320.113281 76.582031 C 321.570312 77.777344 322.996094 79.007812 324.394531 80.273438 C 325.789062 81.539062 327.15625 82.839844 328.488281 84.171875 C 329.820312 85.507812 331.121094 86.871094 332.386719 88.269531 C 333.652344 89.664062 334.882812 91.089844 336.078125 92.550781 C 337.277344 94.007812 338.433594 95.492188 339.558594 97.007812 C 340.679688 98.519531 341.765625 100.0625 342.8125 101.628906 C 343.859375 103.195312 344.867188 104.789062 345.835938 106.40625 C 346.808594 108.023438 347.734375 109.660156 348.625 111.324219 C 349.511719 112.988281 350.359375 114.667969 351.167969 116.375 C 351.972656 118.078125 352.734375 119.800781 353.457031 121.542969 C 354.179688 123.285156 354.855469 125.042969 355.492188 126.816406 C 356.125 128.59375 356.71875 130.382812 357.265625 132.1875 C 357.8125 133.988281 358.316406 135.804688 358.773438 137.632812 C 359.230469 139.464844 359.644531 141.300781 360.011719 143.152344 C 360.378906 145 360.703125 146.855469 360.976562 148.722656 C 361.253906 150.585938 361.484375 152.457031 361.671875 154.332031 C 361.855469 156.207031 361.992188 158.089844 362.085938 159.972656 C 362.179688 161.855469 362.226562 163.738281 362.226562 165.621094 C 362.226562 167.507812 362.179688 169.390625 362.085938 171.273438 C 361.992188 173.15625 361.855469 175.039062 361.671875 176.914062 C 361.484375 178.789062 361.253906 180.660156 360.976562 182.523438 C 360.703125 184.390625 360.378906 186.246094 360.011719 188.09375 C 359.644531 189.945312 359.230469 191.78125 358.773438 193.609375 C 358.316406 195.441406 357.8125 197.257812 357.265625 199.058594 C 356.71875 200.863281 356.125 202.652344 355.492188 204.429688 C 354.855469 206.203125 354.179688 207.960938 353.457031 209.703125 C 352.734375 211.445312 351.972656 213.167969 351.167969 214.871094 C 350.359375 216.574219 349.511719 218.257812 348.625 219.921875 C 347.734375 221.585938 346.808594 223.222656 345.835938 224.839844 C 344.867188 226.457031 343.859375 228.050781 342.8125 229.617188 C 341.765625 231.183594 340.679688 232.726562 339.558594 234.238281 C 338.433594 235.753906 337.277344 237.238281 336.078125 238.695312 C 334.882812 240.15625 333.652344 241.582031 332.386719 242.976562 C 331.121094 244.375 329.820312 245.738281 328.488281 247.074219 C 327.15625 248.40625 325.789062 249.707031 324.394531 250.972656 C 322.996094 252.238281 321.570312 253.46875 320.113281 254.664062 C 318.65625 255.859375 317.171875 257.019531 315.65625 258.140625 C 314.140625 259.265625 312.601562 260.351562 311.035156 261.398438 C 309.464844 262.445312 307.875 263.453125 306.257812 264.421875 C 304.640625 265.390625 303 266.320312 301.339844 267.210938 C 299.675781 268.097656 297.992188 268.945312 296.289062 269.75 C 294.585938 270.558594 292.863281 271.320312 291.121094 272.042969 C 289.378906 272.765625 287.621094 273.441406 285.847656 274.078125 C 284.070312 274.710938 282.28125 275.304688 280.476562 275.851562 C 278.675781 276.398438 276.859375 276.902344 275.027344 277.359375 C 273.199219 277.816406 271.363281 278.230469 269.511719 278.597656 C 267.664062 278.964844 265.808594 279.289062 263.941406 279.5625 C 262.078125 279.839844 260.207031 280.070312 258.332031 280.257812 C 256.457031 280.441406 254.578125 280.578125 252.695312 280.671875 C 250.8125 280.765625 248.925781 280.808594 247.042969 280.808594 L 199.515625 280.808594 L 114.640625 339.253906 C 112.53125 340.726562 110.1875 341.457031 107.609375 341.433594 Z M 137.921875 74.683594 C 135.222656 74.683594 132.53125 74.796875 129.847656 75.035156 C 127.160156 75.269531 124.488281 75.625 121.835938 76.097656 C 119.179688 76.570312 116.550781 77.164062 113.949219 77.871094 C 111.347656 78.578125 108.78125 79.398438 106.25 80.335938 C 103.722656 81.269531 101.238281 82.316406 98.804688 83.472656 C 96.367188 84.628906 93.988281 85.894531 91.664062 87.261719 C 89.339844 88.628906 87.082031 90.097656 84.886719 91.667969 C 82.695312 93.238281 80.574219 94.902344 78.53125 96.660156 C 76.484375 98.417969 74.523438 100.261719 72.640625 102.195312 C 70.757812 104.125 68.96875 106.140625 67.265625 108.230469 C 65.5625 110.324219 63.957031 112.488281 62.449219 114.722656 C 60.9375 116.957031 59.53125 119.253906 58.226562 121.613281 C 56.921875 123.972656 55.722656 126.386719 54.632812 128.851562 C 53.542969 131.320312 52.566406 133.832031 51.699219 136.382812 C 50.832031 138.9375 50.078125 141.523438 49.441406 144.144531 C 48.804688 146.765625 48.285156 149.410156 47.882812 152.078125 C 47.480469 154.742188 47.199219 157.421875 47.035156 160.113281 C 46.871094 162.804688 46.828125 165.5 46.90625 168.195312 C 46.980469 170.890625 47.175781 173.578125 47.492188 176.257812 C 47.808594 178.9375 48.242188 181.59375 48.792969 184.234375 C 49.34375 186.875 50.011719 189.484375 50.796875 192.066406 C 51.582031 194.644531 52.480469 197.1875 53.488281 199.6875 C 54.5 202.1875 55.617188 204.636719 56.847656 207.039062 C 58.074219 209.441406 59.40625 211.78125 60.84375 214.0625 C 62.28125 216.347656 63.816406 218.558594 65.449219 220.707031 C 67.082031 222.851562 68.808594 224.921875 70.625 226.914062 C 72.441406 228.90625 74.34375 230.8125 76.332031 232.636719 C 78.320312 234.460938 80.382812 236.191406 82.527344 237.828125 C 84.667969 239.46875 86.878906 241.011719 89.15625 242.453125 C 91.433594 243.894531 93.773438 245.234375 96.167969 246.46875 C 98.566406 247.703125 101.015625 248.832031 103.511719 249.847656 C 106.011719 250.863281 108.546875 251.769531 111.125 252.558594 C 111.765625 252.753906 112.386719 252.996094 112.984375 253.292969 C 113.585938 253.589844 114.15625 253.929688 114.699219 254.320312 C 115.242188 254.710938 115.75 255.144531 116.21875 255.617188 C 116.691406 256.09375 117.121094 256.601562 117.507812 257.148438 C 117.894531 257.691406 118.234375 258.265625 118.527344 258.867188 C 118.816406 259.46875 119.058594 260.089844 119.25 260.730469 C 119.4375 261.371094 119.574219 262.023438 119.65625 262.6875 C 119.738281 263.351562 119.761719 264.015625 119.734375 264.683594 L 119.734375 306.273438 L 188.964844 258.742188 C 189.953125 258.027344 191.023438 257.480469 192.183594 257.105469 C 193.347656 256.734375 194.535156 256.550781 195.753906 256.558594 L 247.042969 256.558594 C 248.53125 256.558594 250.015625 256.523438 251.503906 256.449219 C 252.992188 256.378906 254.472656 256.269531 255.953125 256.121094 C 257.4375 255.976562 258.914062 255.792969 260.382812 255.578125 C 261.855469 255.359375 263.324219 255.101562 264.78125 254.8125 C 266.242188 254.523438 267.695312 254.195312 269.136719 253.835938 C 270.582031 253.472656 272.015625 253.078125 273.4375 252.644531 C 274.863281 252.210938 276.277344 251.746094 277.675781 251.246094 C 279.078125 250.742188 280.464844 250.207031 281.839844 249.636719 C 283.214844 249.070312 284.574219 248.464844 285.921875 247.828125 C 287.265625 247.191406 288.59375 246.523438 289.90625 245.824219 C 291.21875 245.121094 292.515625 244.386719 293.792969 243.621094 C 295.066406 242.859375 296.324219 242.0625 297.5625 241.234375 C 298.800781 240.40625 300.015625 239.550781 301.210938 238.664062 C 302.40625 237.777344 303.578125 236.863281 304.730469 235.917969 C 305.878906 234.972656 307.007812 234.003906 308.109375 233.003906 C 309.210938 232.003906 310.289062 230.976562 311.34375 229.925781 C 312.394531 228.875 313.421875 227.796875 314.417969 226.691406 C 315.417969 225.589844 316.390625 224.464844 317.335938 223.3125 C 318.277344 222.164062 319.195312 220.988281 320.082031 219.792969 C 320.96875 218.597656 321.824219 217.382812 322.652344 216.144531 C 323.476562 214.90625 324.273438 213.652344 325.039062 212.375 C 325.804688 211.097656 326.535156 209.804688 327.238281 208.492188 C 327.941406 207.179688 328.609375 205.847656 329.246094 204.503906 C 329.882812 203.160156 330.484375 201.796875 331.054688 200.421875 C 331.625 199.046875 332.160156 197.660156 332.660156 196.257812 C 333.160156 194.859375 333.628906 193.445312 334.058594 192.019531 C 334.492188 190.597656 334.890625 189.164062 335.25 187.71875 C 335.613281 186.277344 335.9375 184.824219 336.230469 183.363281 C 336.519531 181.90625 336.773438 180.4375 336.992188 178.964844 C 337.210938 177.496094 337.390625 176.019531 337.539062 174.535156 C 337.683594 173.054688 337.792969 171.570312 337.867188 170.085938 C 337.9375 168.597656 337.976562 167.109375 337.976562 165.625 C 337.976562 164.136719 337.9375 162.648438 337.867188 161.160156 C 337.792969 159.675781 337.683594 158.191406 337.539062 156.710938 C 337.390625 155.226562 337.210938 153.75 336.992188 152.28125 C 336.773438 150.808594 336.519531 149.339844 336.230469 147.882812 C 335.9375 146.421875 335.613281 144.96875 335.25 143.527344 C 334.890625 142.082031 334.492188 140.648438 334.058594 139.226562 C 333.628906 137.800781 333.160156 136.386719 332.660156 134.988281 C 332.160156 133.585938 331.625 132.199219 331.054688 130.824219 C 330.484375 129.449219 329.882812 128.085938 329.246094 126.742188 C 328.609375 125.398438 327.941406 124.066406 327.238281 122.753906 C 326.535156 121.441406 325.804688 120.148438 325.039062 118.871094 C 324.273438 117.59375 323.476562 116.339844 322.652344 115.101562 C 321.824219 113.863281 320.96875 112.648438 320.082031 111.453125 C 319.195312 110.257812 318.277344 109.082031 317.335938 107.933594 C 316.390625 106.78125 315.417969 105.65625 314.417969 104.554688 C 313.421875 103.449219 312.394531 102.371094 311.34375 101.320312 C 310.289062 100.269531 309.210938 99.242188 308.109375 98.242188 C 307.007812 97.242188 305.878906 96.273438 304.730469 95.328125 C 303.578125 94.382812 302.40625 93.46875 301.210938 92.582031 C 300.015625 91.695312 298.800781 90.839844 297.5625 90.011719 C 296.324219 89.183594 295.066406 88.386719 293.792969 87.625 C 292.515625 86.859375 291.21875 86.125 289.90625 85.421875 C 288.59375 84.722656 287.265625 84.054688 285.921875 83.417969 C 284.574219 82.78125 283.214844 82.175781 281.839844 81.609375 C 280.464844 81.039062 279.078125 80.503906 277.675781 80 C 276.277344 79.5 274.863281 79.035156 273.4375 78.601562 C 272.015625 78.167969 270.582031 77.773438 269.136719 77.410156 C 267.695312 77.050781 266.242188 76.722656 264.78125 76.433594 C 263.324219 76.140625 261.855469 75.886719 260.382812 75.667969 C 258.914062 75.453125 257.4375 75.269531 255.953125 75.125 C 254.472656 74.976562 252.992188 74.867188 251.503906 74.796875 C 250.015625 74.722656 248.53125 74.683594 247.042969 74.683594 Z M 137.921875 74.683594 "/></g><path style=" stroke:none;fill-rule:nonzero;fill:rgb(44.709778%,51.368713%,68.629456%);fill-opacity:1;" d="M 253.105469 147.433594 L 131.859375 147.433594 C 131.0625 147.433594 130.273438 147.359375 129.492188 147.203125 C 128.710938 147.046875 127.953125 146.816406 127.21875 146.511719 C 126.484375 146.207031 125.785156 145.835938 125.121094 145.390625 C 124.460938 144.949219 123.847656 144.445312 123.285156 143.882812 C 122.722656 143.320312 122.21875 142.707031 121.777344 142.046875 C 121.335938 141.386719 120.960938 140.6875 120.65625 139.949219 C 120.351562 139.214844 120.121094 138.457031 119.96875 137.675781 C 119.8125 136.894531 119.734375 136.105469 119.734375 135.308594 C 119.734375 134.515625 119.8125 133.726562 119.96875 132.945312 C 120.121094 132.164062 120.351562 131.40625 120.65625 130.671875 C 120.960938 129.933594 121.335938 129.234375 121.777344 128.574219 C 122.21875 127.914062 122.722656 127.300781 123.285156 126.738281 C 123.847656 126.175781 124.460938 125.671875 125.121094 125.230469 C 125.785156 124.785156 126.484375 124.414062 127.21875 124.109375 C 127.953125 123.804688 128.710938 123.574219 129.492188 123.417969 C 130.273438 123.261719 131.0625 123.183594 131.859375 123.183594 L 253.105469 123.183594 C 253.898438 123.183594 254.6875 123.261719 255.46875 123.417969 C 256.25 123.574219 257.007812 123.804688 257.742188 124.109375 C 258.480469 124.414062 259.179688 124.785156 259.839844 125.230469 C 260.503906 125.671875 261.113281 126.175781 261.675781 126.738281 C 262.242188 127.300781 262.742188 127.914062 263.183594 128.574219 C 263.628906 129.234375 264 129.933594 264.304688 130.671875 C 264.609375 131.40625 264.839844 132.164062 264.996094 132.945312 C 265.152344 133.726562 265.230469 134.515625 265.230469 135.308594 C 265.230469 136.105469 265.152344 136.894531 264.996094 137.675781 C 264.839844 138.457031 264.609375 139.214844 264.304688 139.949219 C 264 140.6875 263.628906 141.386719 263.183594 142.046875 C 262.742188 142.707031 262.242188 143.320312 261.675781 143.882812 C 261.113281 144.445312 260.503906 144.949219 259.839844 145.390625 C 259.179688 145.835938 258.480469 146.207031 257.742188 146.511719 C 257.007812 146.816406 256.25 147.046875 255.46875 147.203125 C 254.6875 147.359375 253.898438 147.433594 253.105469 147.433594 Z M 253.105469 147.433594 "/><path style=" stroke:none;fill-rule:nonzero;fill:rgb(44.709778%,51.368713%,68.629456%);fill-opacity:1;" d="M 253.105469 208.058594 L 131.859375 208.058594 C 131.0625 208.058594 130.273438 207.984375 129.492188 207.828125 C 128.710938 207.671875 127.953125 207.441406 127.21875 207.136719 C 126.484375 206.832031 125.785156 206.460938 125.121094 206.015625 C 124.460938 205.574219 123.847656 205.070312 123.285156 204.507812 C 122.722656 203.945312 122.21875 203.332031 121.777344 202.671875 C 121.335938 202.011719 120.960938 201.3125 120.65625 200.574219 C 120.351562 199.839844 120.121094 199.082031 119.96875 198.300781 C 119.8125 197.519531 119.734375 196.730469 119.734375 195.933594 C 119.734375 195.140625 119.8125 194.351562 119.96875 193.570312 C 120.121094 192.789062 120.351562 192.03125 120.65625 191.296875 C 120.960938 190.558594 121.335938 189.859375 121.777344 189.199219 C 122.21875 188.539062 122.722656 187.925781 123.285156 187.363281 C 123.847656 186.800781 124.460938 186.296875 125.121094 185.855469 C 125.785156 185.410156 126.484375 185.039062 127.21875 184.734375 C 127.953125 184.429688 128.710938 184.199219 129.492188 184.042969 C 130.273438 183.886719 131.0625 183.808594 131.859375 183.808594 L 253.105469 183.808594 C 253.898438 183.808594 254.6875 183.886719 255.46875 184.042969 C 256.25 184.199219 257.007812 184.429688 257.742188 184.734375 C 258.480469 185.039062 259.179688 185.410156 259.839844 185.855469 C 260.503906 186.296875 261.113281 186.800781 261.675781 187.363281 C 262.242188 187.925781 262.742188 188.539062 263.183594 189.199219 C 263.628906 189.859375 264 190.558594 264.304688 191.296875 C 264.609375 192.03125 264.839844 192.789062 264.996094 193.570312 C 265.152344 194.351562 265.230469 195.140625 265.230469 195.933594 C 265.230469 196.730469 265.152344 197.519531 264.996094 198.300781 C 264.839844 199.082031 264.609375 199.839844 264.304688 200.574219 C 264 201.3125 263.628906 202.011719 263.183594 202.671875 C 262.742188 203.332031 262.242188 203.945312 261.675781 204.507812 C 261.113281 205.070312 260.503906 205.574219 259.839844 206.015625 C 259.179688 206.460938 258.480469 206.832031 257.742188 207.136719 C 257.007812 207.441406 256.25 207.671875 255.46875 207.828125 C 254.6875 207.984375 253.898438 208.058594 253.105469 208.058594 Z M 253.105469 208.058594 "/></g></svg>