<?xml version="1.0" encoding="UTF-8"?><svg xmlns="http://www.w3.org/2000/svg" xmlns:xlink="http://www.w3.org/1999/xlink" contentScriptType="text/ecmascript" width="375pt" zoomAndPan="magnify" contentStyleType="text/css" viewBox="0 0 375 374.999991" height="374.999991pt" preserveAspectRatio="xMidYMid meet" version="1.2"><defs/><g xml:id="surface1" id="surface1"><g clip-rule="nonzero"><path style=" stroke:none;fill-rule:nonzero;fill:rgb(44.709778%,51.368713%,68.629456%);fill-opacity:1;" d="M 43.542969 320.070312 L 184.859375 370.082031 C 185.152344 370.082031 185.449219 370.378906 185.742188 370.378906 C 186.035156 370.378906 186.035156 370.378906 186.332031 370.378906 C 186.625 370.378906 186.917969 370.378906 187.507812 370.378906 C 187.507812 370.378906 187.804688 370.378906 187.804688 370.378906 C 188.390625 370.378906 188.6875 370.378906 189.273438 370.378906 C 189.273438 370.378906 189.570312 370.378906 189.570312 370.378906 C 189.863281 370.378906 190.15625 370.082031 190.453125 370.082031 L 331.769531 320.070312 C 335.300781 318.894531 337.65625 315.363281 337.65625 311.832031 L 337.65625 212.984375 L 367.097656 202.6875 C 369.453125 201.804688 371.515625 199.746094 372.398438 197.390625 C 373.28125 195.039062 372.984375 192.097656 371.515625 189.742188 L 336.183594 130.90625 C 336.183594 130.90625 336.183594 130.90625 336.183594 130.609375 C 336.183594 130.316406 335.890625 130.316406 335.890625 130.023438 C 335.890625 130.023438 335.890625 130.023438 335.890625 129.726562 C 335.890625 129.433594 335.597656 129.433594 335.597656 129.140625 C 335.597656 129.140625 335.300781 128.84375 335.300781 128.84375 C 335.300781 128.84375 335.300781 128.84375 335.007812 128.550781 C 335.007812 128.550781 335.007812 128.550781 334.714844 128.550781 C 334.417969 128.550781 334.417969 128.257812 334.125 128.257812 C 334.125 128.257812 333.828125 127.960938 333.828125 127.960938 C 333.828125 127.960938 333.828125 127.960938 333.535156 127.960938 C 333.535156 127.960938 333.242188 127.960938 333.242188 127.960938 C 332.945312 127.960938 332.945312 127.667969 332.652344 127.667969 C 332.359375 127.667969 332.359375 127.667969 332.0625 127.375 C 332.0625 127.375 332.0625 127.375 331.769531 127.375 L 190.453125 77.363281 C 189.863281 77.066406 189.273438 77.066406 188.6875 77.066406 C 188.6875 77.066406 188.390625 77.066406 188.390625 77.066406 C 187.804688 77.066406 187.507812 77.066406 186.917969 77.066406 C 186.625 77.066406 186.625 77.066406 186.332031 77.066406 C 185.742188 77.066406 185.152344 77.363281 184.5625 77.363281 L 43.246094 127.375 C 43.246094 127.375 42.953125 127.375 42.953125 127.667969 C 42.660156 127.960938 42.070312 127.960938 41.777344 128.257812 C 41.1875 128.550781 40.597656 129.140625 40.007812 129.726562 C 40.007812 129.726562 39.714844 130.023438 39.714844 130.023438 C 39.421875 130.316406 39.421875 130.609375 39.125 130.609375 C 39.125 130.609375 39.125 130.609375 38.832031 130.90625 L 3.503906 189.742188 C 2.324219 191.800781 2.03125 194.746094 2.914062 197.097656 C 3.796875 199.453125 5.859375 201.511719 8.214844 202.394531 L 37.652344 212.691406 L 37.652344 311.832031 C 37.652344 315.65625 40.007812 318.894531 43.542969 320.070312 Z M 320.285156 305.65625 L 196.636719 349.492188 L 196.636719 278.589844 C 196.636719 273.589844 192.808594 269.765625 187.804688 269.765625 C 182.796875 269.765625 178.96875 273.589844 178.96875 278.589844 L 178.96875 349.492188 L 55.320312 305.65625 L 55.320312 219.164062 L 149.53125 252.40625 C 150.414062 252.699219 151.589844 252.996094 152.472656 252.996094 C 155.417969 252.996094 158.363281 251.523438 160.128906 248.582031 L 187.804688 202.394531 L 215.476562 248.582031 C 217.242188 251.523438 220.1875 252.996094 223.132812 252.996094 C 224.015625 252.996094 225.191406 252.699219 226.074219 252.40625 L 320.285156 219.164062 Z M 196.636719 97.660156 L 302.621094 135.316406 L 196.636719 172.972656 Z M 226.960938 233.578125 L 200.757812 190.039062 L 324.996094 145.910156 L 351.199219 189.449219 Z M 50.3125 145.910156 L 174.554688 190.039062 L 148.351562 233.578125 L 24.109375 189.449219 Z M 50.3125 145.910156 "/></g></g></svg>