<?xml version="1.0" encoding="UTF-8"?><svg xmlns="http://www.w3.org/2000/svg" xmlns:xlink="http://www.w3.org/1999/xlink" contentScriptType="text/ecmascript" width="375pt" zoomAndPan="magnify" contentStyleType="text/css" viewBox="0 0 375 374.999991" height="374.999991pt" preserveAspectRatio="xMidYMid meet" version="1.2"><defs/><g xml:id="surface1" id="surface1"><g clip-rule="nonzero"><path style=" stroke:none;fill-rule:nonzero;fill:rgb(44.709778%,51.368713%,68.629456%);fill-opacity:1;" d="M 289.363281 181.234375 C 282.761719 179.207031 275.800781 182.871094 273.742188 189.472656 C 271.683594 196.039062 275.375 203.035156 281.976562 205.0625 C 288.546875 207.121094 295.539062 203.425781 297.566406 196.859375 C 299.625 190.257812 295.933594 183.292969 289.363281 181.234375 Z M 304.855469 167.3125 L 311.519531 145.773438 C 321.945312 146.820312 332.46875 144.824219 341.976562 139.824219 C 354.691406 133.15625 364.039062 121.914062 368.285156 108.21875 C 372.535156 94.492188 371.160156 79.949219 364.496094 67.269531 C 357.828125 54.554688 346.554688 45.207031 332.859375 40.957031 C 304.558594 32.167969 274.429688 48.050781 265.636719 76.355469 C 263.875 81.976562 267.011719 87.957031 272.664062 89.6875 C 278.316406 91.488281 284.234375 88.285156 285.996094 82.695312 C 291.292969 65.601562 309.496094 56.027344 326.554688 61.320312 C 334.820312 63.902344 341.585938 69.523438 345.636719 77.171875 C 349.660156 84.851562 350.476562 93.609375 347.925781 101.878906 C 345.34375 110.148438 339.691406 116.945312 332.042969 120.96875 C 324.398438 125.019531 315.636719 125.804688 307.335938 123.253906 C 301.714844 121.488281 295.734375 124.660156 294.003906 130.28125 L 284.496094 161.003906 C 282.730469 166.59375 285.867188 172.574219 291.488281 174.339844 C 292.566406 174.664062 293.613281 174.796875 294.65625 174.796875 C 299.199219 174.796875 303.414062 171.886719 304.855469 167.3125 Z M 260.148438 343.3125 C 254.265625 343.3125 249.492188 338.539062 249.492188 332.625 C 249.492188 314.84375 223.9375 287.554688 182.664062 274.511719 C 178.675781 273.238281 175.769531 269.742188 175.277344 265.589844 C 174.789062 261.40625 176.8125 257.355469 180.375 255.199219 C 206.390625 239.609375 221.945312 212.285156 221.945312 182.085938 C 221.945312 135.085938 183.710938 96.847656 136.683594 96.847656 C 89.6875 96.847656 51.421875 135.085938 51.421875 182.085938 C 51.421875 212.25 66.976562 239.574219 92.988281 255.199219 C 96.585938 257.355469 98.578125 261.40625 98.085938 265.589844 C 97.597656 269.742188 94.722656 273.238281 90.734375 274.511719 C 49.460938 287.554688 23.902344 314.84375 23.902344 332.625 C 23.902344 338.539062 19.132812 343.3125 13.25 343.3125 C 7.367188 343.3125 2.597656 338.539062 2.597656 332.625 C 2.597656 306.347656 28.121094 278.207031 65.503906 261.34375 C 43.054688 241.339844 30.113281 212.90625 30.113281 182.085938 C 30.113281 123.320312 77.921875 75.503906 136.683594 75.503906 C 195.441406 75.503906 243.253906 123.320312 243.253906 182.085938 C 243.253906 212.90625 230.3125 241.339844 207.859375 261.34375 C 245.277344 278.207031 270.800781 306.347656 270.800781 332.625 C 270.800781 338.539062 266.03125 343.3125 260.148438 343.3125 "/></g></g></svg>