<?xml version="1.0" encoding="UTF-8"?>
<svg xmlns="http://www.w3.org/2000/svg" xmlns:xlink="http://www.w3.org/1999/xlink" width="375pt" height="374.999991pt" viewBox="0 0 375 374.999991" version="1.2">
<defs>
<clipPath id="clip1">
  <path d="M 5 51.421875 L 369 51.421875 L 369 273 L 5 273 Z M 5 51.421875 "/>
</clipPath>
<clipPath id="clip2">
  <path d="M 192 147 L 368 147 L 368 323.671875 L 192 323.671875 Z M 192 147 "/>
</clipPath>
</defs>
<g id="surface1">
<path style=" stroke:none;fill-rule:nonzero;fill:rgb(83.918762%,83.529663%,86.669922%);fill-opacity:1;" d="M 285.121094 283.726562 C 276.339844 287.125 266.992188 288.824219 257.363281 288.824219 C 247.730469 288.824219 238.382812 287.125 229.601562 283.726562 L 70.691406 283.726562 C 67.574219 283.726562 65.027344 286.277344 65.027344 289.390625 C 65.027344 292.507812 67.574219 295.058594 70.691406 295.058594 L 299.851562 295.058594 L 288.519531 283.726562 Z M 285.121094 283.726562 "/>
<g clip-path="url(#clip1)" clip-rule="nonzero">
<path style=" stroke:none;fill-rule:nonzero;fill:rgb(83.918762%,83.529663%,86.669922%);fill-opacity:1;" d="M 334.128906 51.421875 L 39.53125 51.421875 C 20.835938 51.421875 5.539062 66.71875 5.539062 85.417969 L 5.539062 238.398438 C 5.539062 257.097656 20.835938 272.394531 39.53125 272.394531 L 210.058594 272.394531 C 207.789062 270.695312 205.523438 268.710938 203.542969 266.445312 C 201.84375 264.746094 200.144531 262.761719 198.441406 261.0625 L 39.53125 261.0625 C 27.066406 261.0625 16.871094 250.863281 16.871094 238.398438 L 16.871094 85.417969 C 16.871094 72.953125 27.066406 62.753906 39.53125 62.753906 L 334.128906 62.753906 C 346.589844 62.753906 356.789062 72.953125 356.789062 85.417969 L 356.789062 238.398438 C 356.789062 247.464844 351.40625 255.398438 343.757812 259.078125 L 351.972656 267.296875 C 361.605469 261.347656 368.117188 250.582031 368.117188 238.398438 L 368.117188 85.417969 C 368.117188 66.71875 352.824219 51.421875 334.128906 51.421875 Z M 334.128906 51.421875 "/>
</g>
<path style=" stroke:none;fill-rule:nonzero;fill:rgb(83.918762%,83.529663%,86.669922%);fill-opacity:1;" d="M 158.503906 181.738281 L 187.679688 181.738281 C 189.378906 177.773438 191.363281 174.089844 193.910156 170.40625 L 158.503906 170.40625 C 149.15625 170.40625 141.507812 178.054688 141.507812 187.40625 C 141.507812 196.753906 149.15625 204.402344 158.503906 204.402344 L 181.730469 204.402344 C 182.015625 200.4375 182.863281 196.753906 183.714844 193.070312 L 158.503906 193.070312 C 155.386719 193.070312 152.835938 190.519531 152.835938 187.40625 C 152.835938 184.289062 155.386719 181.738281 158.503906 181.738281 Z M 158.503906 181.738281 "/>
<path style=" stroke:none;fill-rule:nonzero;fill:rgb(83.918762%,83.529663%,86.669922%);fill-opacity:1;" d="M 308.632812 147.742188 L 297.300781 147.742188 C 302.402344 150.859375 306.933594 154.542969 311.183594 158.792969 C 320.8125 157.375 328.179688 149.160156 328.179688 139.246094 C 328.179688 128.195312 319.398438 119.414062 308.351562 119.414062 L 65.027344 119.414062 C 53.976562 119.414062 45.195312 128.195312 45.195312 139.246094 C 45.195312 150.292969 53.976562 159.074219 65.027344 159.074219 L 203.257812 159.074219 C 203.257812 159.074219 203.542969 158.792969 203.542969 158.792969 C 207.792969 154.542969 212.324219 150.859375 217.421875 147.742188 L 65.027344 147.742188 C 60.210938 147.742188 56.527344 144.058594 56.527344 139.246094 C 56.527344 134.429688 60.210938 130.746094 65.027344 130.746094 L 308.632812 130.746094 C 313.449219 130.746094 317.132812 134.429688 317.132812 139.246094 C 317.132812 144.058594 313.449219 147.742188 308.632812 147.742188 Z M 308.632812 147.742188 "/>
<g clip-path="url(#clip2)" clip-rule="nonzero">
<path style=" stroke:none;fill-rule:nonzero;fill:rgb(83.918762%,83.529663%,86.669922%);fill-opacity:1;" d="M 313.730469 244.914062 C 327.894531 219.984375 324.496094 187.972656 303.25 166.722656 C 278.039062 141.511719 236.683594 141.511719 211.472656 166.722656 C 186.261719 191.9375 186.261719 233.300781 211.472656 258.511719 C 224.21875 271.261719 240.648438 277.492188 257.363281 277.492188 C 268.410156 277.492188 279.742188 274.660156 289.65625 268.996094 L 339.226562 318.574219 C 342.625 321.972656 346.875 323.671875 351.121094 323.671875 C 355.371094 323.671875 359.902344 321.972656 363.019531 318.574219 C 369.535156 312.054688 369.535156 301.292969 363.019531 294.492188 Z M 219.40625 250.582031 C 198.441406 229.617188 198.441406 195.621094 219.40625 174.65625 C 229.886719 164.175781 243.480469 159.074219 257.363281 159.074219 C 270.960938 159.074219 284.839844 164.175781 295.320312 174.65625 C 316.28125 195.621094 316.28125 229.617188 295.320312 250.582031 C 274.359375 271.542969 240.367188 271.542969 219.40625 250.582031 Z M 355.089844 310.355469 C 352.824219 312.625 349.421875 312.625 347.15625 310.355469 L 299.003906 262.195312 C 300.417969 261.0625 301.835938 259.644531 303.25 258.511719 C 304.667969 257.097656 305.800781 255.679688 306.933594 254.261719 L 355.089844 302.425781 C 357.355469 304.691406 357.355469 308.089844 355.089844 310.355469 Z M 355.089844 310.355469 "/>
</g>
</g>
</svg>
