<?xml version="1.0" encoding="UTF-8" standalone="no"?>
<svg
   xmlns:dc="http://purl.org/dc/elements/1.1/"
   xmlns:cc="http://creativecommons.org/ns#"
   xmlns:rdf="http://www.w3.org/1999/02/22-rdf-syntax-ns#"
   xmlns:svg="http://www.w3.org/2000/svg"
   xmlns="http://www.w3.org/2000/svg"
   xmlns:sodipodi="http://sodipodi.sourceforge.net/DTD/sodipodi-0.dtd"
   xmlns:inkscape="http://www.inkscape.org/namespaces/inkscape"
   width="375pt"
   height="374.999991pt"
   viewBox="0 0 375 374.999991"
   version="1.2"
   id="svg30"
   sodipodi:docname="Welcome.svg"
   inkscape:version="1.0.1 (3bc2e813f5, 2020-09-07)">
  <metadata
     id="metadata34">
    <rdf:RDF>
      <cc:Work
         rdf:about="">
        <dc:format>image/svg+xml</dc:format>
        <dc:type
           rdf:resource="http://purl.org/dc/dcmitype/StillImage" />
        <dc:title></dc:title>
      </cc:Work>
    </rdf:RDF>
  </metadata>
  <sodipodi:namedview
     pagecolor="#ffffff"
     bordercolor="#666666"
     borderopacity="1"
     objecttolerance="10"
     gridtolerance="10"
     guidetolerance="10"
     inkscape:pageopacity="0"
     inkscape:pageshadow="2"
     inkscape:window-width="1920"
     inkscape:window-height="1055"
     id="namedview32"
     showgrid="false"
     inkscape:zoom="1.758"
     inkscape:cx="135.38111"
     inkscape:cy="250"
     inkscape:window-x="0"
     inkscape:window-y="0"
     inkscape:window-maximized="1"
     inkscape:current-layer="surface1" />
  <defs
     id="defs5">
    <clipPath
       id="clip1">
      <path
         d="M 257 63.140625 L 354.402344 63.140625 L 354.402344 146.34375 L 257 146.34375 Z M 257 63.140625 "
         id="path2" />
    </clipPath>
  </defs>
  <g
     id="surface1">
    <path
       style="stroke:none;fill-rule:nonzero;fill:#7283af;fill-opacity:1"
       d="M 106.25 143.75 L 118.75 143.75 L 118.75 225 L 106.25 225 Z M 106.25 143.75 "
       id="path7" />
    <path
       style="stroke:none;fill-rule:nonzero;fill:#7283af;fill-opacity:1"
       d="M 256.25 150 L 268.75 150 L 268.75 231.25 L 256.25 231.25 Z M 256.25 150 "
       id="path9" />
    <path
       style="stroke:none;fill-rule:nonzero;fill:#7283af;fill-opacity:1"
       d="M 0.59375 371.335938 C 0.882812 371.96875 1.269531 372.550781 1.75 373.054688 C 1.84375 373.15625 1.949219 373.230469 2.050781 373.324219 C 2.261719 373.519531 2.457031 373.730469 2.699219 373.898438 C 2.925781 374.054688 3.1875 374.132812 3.425781 374.257812 C 3.636719 374.367188 3.835938 374.480469 4.070312 374.570312 C 4.773438 374.824219 5.507812 375 6.25 375 L 368.75 375 C 369.492188 375 370.226562 374.824219 370.925781 374.5625 C 371.15625 374.476562 371.351562 374.363281 371.570312 374.25 C 371.8125 374.125 372.070312 374.050781 372.292969 373.894531 C 372.539062 373.726562 372.730469 373.511719 372.945312 373.320312 C 373.042969 373.226562 373.148438 373.148438 373.242188 373.050781 C 373.730469 372.542969 374.113281 371.960938 374.398438 371.332031 C 374.460938 371.199219 374.5 371.0625 374.554688 370.925781 C 374.820312 370.238281 375 369.511719 375 368.75 L 375 6.25 C 375 5.488281 374.820312 4.761719 374.5625 4.070312 C 374.511719 3.929688 374.46875 3.800781 374.40625 3.664062 C 374.117188 3.03125 373.730469 2.449219 373.25 1.945312 C 373.15625 1.84375 373.050781 1.769531 372.949219 1.679688 C 372.738281 1.488281 372.542969 1.273438 372.300781 1.105469 C 372.011719 0.90625 371.695312 0.769531 371.382812 0.625 C 371.28125 0.582031 371.199219 0.519531 371.101562 0.476562 C 370.414062 0.195312 369.695312 0.0703125 368.957031 0.0429688 C 368.882812 0.0390625 368.824219 0 368.75 0 L 6.25 0 C 6.175781 0 6.105469 0.0429688 6.03125 0.0429688 C 5.304688 0.0703125 4.585938 0.199219 3.90625 0.476562 C 3.804688 0.511719 3.71875 0.574219 3.617188 0.625 C 3.304688 0.769531 2.992188 0.90625 2.707031 1.105469 C 2.460938 1.273438 2.269531 1.488281 2.054688 1.679688 C 1.949219 1.773438 1.84375 1.851562 1.75 1.945312 C 1.269531 2.457031 0.882812 3.03125 0.59375 3.664062 C 0.53125 3.800781 0.492188 3.929688 0.4375 4.070312 C 0.179688 4.761719 0 5.488281 0 6.25 L 0 368.75 C 0 369.511719 0.179688 370.238281 0.4375 370.929688 C 0.492188 371.070312 0.53125 371.199219 0.59375 371.335938 Z M 131.25 60.554688 L 131.25 314.445312 L 12.5 359.679688 L 12.5 15.320312 Z M 139.726562 324.59375 C 142.148438 323.667969 143.75 321.34375 143.75 318.75 L 143.75 56.25 C 143.75 53.65625 142.148438 51.332031 139.726562 50.40625 L 40.210938 12.5 L 334.789062 12.5 L 235.273438 50.40625 C 232.851562 51.332031 231.25 53.65625 231.25 56.25 L 231.25 318.75 C 231.25 321.34375 232.851562 323.667969 235.273438 324.59375 L 334.789062 362.5 L 40.210938 362.5 Z M 243.75 314.445312 L 243.75 60.554688 L 362.5 15.320312 L 362.5 359.679688 Z M 243.75 314.445312 "
       id="path11" />
    <g
       clip-path="url(#clip1)"
       clip-rule="nonzero"
       id="g23"
       transform="matrix(0.82063525,0,0,0.82063525,-64.060988,44.857146)"
       style="fill:#7283af;fill-opacity:1">
      <path
         style="fill:#7283af;fill-opacity:1;fill-rule:nonzero;stroke:none"
         d="m 281.42187,146.34375 c -0.45703,0 -0.89843,-0.0859 -1.32421,-0.26172 -0.42188,-0.17578 -0.79688,-0.42969 -1.1211,-0.75391 -0.32422,-0.32421 -0.57422,-0.69921 -0.75,-1.125 -0.17578,-0.42187 -0.26172,-0.86718 -0.26172,-1.32421 V 126.6875 c -0.8789,-0.34766 -1.74218,-0.73828 -2.58984,-1.16016 -0.84375,-0.42578 -1.67188,-0.88671 -2.47656,-1.38281 -0.80469,-0.49609 -1.58985,-1.02734 -2.35157,-1.58984 -0.76171,-0.56641 -1.49609,-1.16016 -2.20312,-1.78906 -0.71094,-0.62891 -1.39063,-1.28516 -2.04297,-1.97266 -0.65234,-0.68359 -1.27734,-1.39844 -1.86719,-2.14063 -0.58984,-0.73828 -1.14843,-1.5039 -1.67578,-2.29296 -0.52344,-0.78907 -1.01172,-1.60157 -1.46875,-2.42969 -0.45703,-0.83203 -0.875,-1.6836 -1.25781,-2.55078 -0.38281,-0.86719 -0.72656,-1.75 -1.03125,-2.64844 -0.30469,-0.89844 -0.57422,-1.80469 -0.80078,-2.72656 -0.22656,-0.92188 -0.41406,-1.85157 -0.5625,-2.78516 -0.14844,-0.9375 -0.25391,-1.878906 -0.32031,-2.828125 -0.0664,-0.945313 -0.0937,-1.890625 -0.0781,-2.839844 0.0156,-0.949219 0.0703,-1.894531 0.16797,-2.839843 0.0937,-0.941407 0.23437,-1.878907 0.41016,-2.8125 0.17578,-0.929688 0.39453,-1.855469 0.65234,-2.765626 0.25781,-0.914062 0.55078,-1.8125 0.88672,-2.703124 0.33594,-0.886719 0.70703,-1.757813 1.11719,-2.613282 0.41015,-0.855468 0.85546,-1.6875 1.33593,-2.507812 0.48047,-0.816406 0.9961,-1.609375 1.54688,-2.378906 0.55078,-0.773438 1.13281,-1.519532 1.74609,-2.242188 0.61719,-0.71875 1.25781,-1.414062 1.9336,-2.078125 0.67578,-0.667969 1.375,-1.300781 2.10546,-1.90625 0.72657,-0.605469 1.48047,-1.175781 2.26172,-1.71875 0.77735,-0.539063 1.57813,-1.042969 2.39844,-1.511719 0.82031,-0.472656 1.66406,-0.90625 2.51953,-1.300781 0.85938,-0.398437 1.73438,-0.757813 2.625,-1.078125 0.89063,-0.324219 1.79297,-0.605469 2.70703,-0.847656 0.91407,-0.246094 1.83985,-0.449219 2.76953,-0.613282 0.9336,-0.164062 1.8711,-0.285156 2.8125,-0.367187 0.94141,-0.08203 1.88672,-0.125 2.83204,-0.125 h 31.12109 c 1.07422,0 2.14844,0.05469 3.21875,0.160156 1.07031,0.105469 2.13281,0.261719 3.19141,0.472657 1.05468,0.210937 2.09375,0.472656 3.125,0.785156 1.03125,0.3125 2.04296,0.675781 3.03515,1.089844 0.9961,0.414062 1.96485,0.875 2.91406,1.382812 0.94922,0.507812 1.8711,1.0625 2.76563,1.660156 0.89453,0.601563 1.75781,1.242188 2.58984,1.925782 0.83203,0.683593 1.625,1.40625 2.38672,2.171874 0.76172,0.761719 1.48438,1.558594 2.16406,2.394532 0.6836,0.832031 1.32422,1.699218 1.92188,2.59375 0.59766,0.898437 1.14844,1.820312 1.65625,2.773437 0.50781,0.953125 0.96875,1.925781 1.37891,2.921875 0.41406,0.996094 0.77343,2.011719 1.08593,3.042969 0.3125,1.03125 0.57422,2.078125 0.78516,3.136719 0.20703,1.054687 0.36719,2.121094 0.47266,3.195312 0.10546,1.074219 0.15625,2.148438 0.15625,3.226563 0,1.082031 -0.0508,2.15625 -0.15625,3.230469 -0.10547,1.074222 -0.26563,2.136722 -0.47266,3.195312 -0.21094,1.05859 -0.47266,2.10547 -0.78516,3.13672 -0.3125,1.03125 -0.67187,2.04687 -1.08593,3.04297 -0.41016,0.99609 -0.8711,1.96875 -1.37891,2.92187 -0.50781,0.94922 -1.05859,1.875 -1.65625,2.77344 -0.59766,0.89453 -1.23828,1.76172 -1.92188,2.59375 -0.67968,0.83594 -1.40234,1.63281 -2.16406,2.39453 -0.76172,0.76563 -1.55469,1.48828 -2.38672,2.17188 -0.83203,0.68359 -1.69531,1.32422 -2.58984,1.92578 -0.89453,0.59765 -1.81641,1.15234 -2.76563,1.66015 -0.94921,0.50782 -1.91796,0.96875 -2.91406,1.38282 -0.99219,0.41406 -2.0039,0.77734 -3.03515,1.08984 -1.03125,0.3125 -2.07032,0.57422 -3.125,0.78516 -1.0586,0.21093 -2.1211,0.36718 -3.19141,0.47265 -1.07031,0.10547 -2.14453,0.16016 -3.21875,0.16016 h -13.55469 l -24.20312,16.70703 c -0.60547,0.42187 -1.27344,0.63281 -2.00782,0.625 z m 8.64454,-76.269531 c -0.76954,0 -1.53516,0.03125 -2.30079,0.101562 -0.76562,0.06641 -1.52734,0.167969 -2.28515,0.304688 -0.75781,0.132812 -1.50781,0.304687 -2.25,0.503906 -0.74219,0.203125 -1.47266,0.4375 -2.19531,0.707031 -0.72266,0.265625 -1.42969,0.566406 -2.125,0.894532 -0.69532,0.332031 -1.3711,0.695312 -2.03516,1.085937 -0.66406,0.390625 -1.30859,0.808594 -1.93359,1.257813 -0.625,0.449218 -1.23047,0.925781 -1.8125,1.429687 -0.58204,0.5 -1.14454,1.027344 -1.67969,1.582031 -0.53516,0.550782 -1.04688,1.125 -1.53125,1.726563 -0.48438,0.597656 -0.94531,1.214843 -1.375,1.855469 -0.42969,0.636718 -0.83203,1.292968 -1.20313,1.96875 -0.37109,0.675781 -0.71484,1.367187 -1.02734,2.070312 -0.30859,0.707031 -0.58984,1.421875 -0.83594,2.152344 -0.24609,0.730468 -0.46094,1.472656 -0.64453,2.21875 -0.17969,0.75 -0.32812,1.507812 -0.44141,2.269531 -0.11718,0.761719 -0.19531,1.527344 -0.24218,2.296875 -0.0469,0.769531 -0.0586,1.539062 -0.0391,2.3125 0.0234,0.769531 0.0781,1.539062 0.16797,2.304688 0.0899,0.765624 0.21485,1.527342 0.3711,2.281252 0.15625,0.7539 0.34765,1.5 0.57031,2.23828 0.22656,0.73828 0.48047,1.46484 0.76953,2.17969 0.28906,0.71484 0.60547,1.41406 0.95703,2.10156 0.35156,0.6875 0.73047,1.35547 1.14063,2.00781 0.41015,0.65235 0.84765,1.28516 1.3125,1.89844 0.46484,0.61328 0.95703,1.20703 1.47656,1.77734 0.51953,0.56641 1.0625,1.11328 1.62891,1.63672 0.5664,0.51953 1.15625,1.01563 1.76562,1.48438 0.60938,0.46875 1.24219,0.91015 1.89063,1.32031 0.64843,0.41406 1.3164,0.79687 2,1.14844 0.68359,0.35156 1.38281,0.67578 2.09375,0.96484 0.71093,0.29297 1.4375,0.55078 2.17187,0.77734 0.36719,0.10938 0.70703,0.27735 1.01953,0.50391 0.3125,0.22266 0.57813,0.49219 0.80078,0.80859 0.22266,0.3125 0.38672,0.65235 0.4961,1.02344 0.10937,0.36719 0.15625,0.7461 0.13672,1.12891 v 11.89062 L 304.625,122.69922 c 0.57812,-0.41797 1.22266,-0.62891 1.9375,-0.62109 h 14.625 c 0.84766,0 1.69531,-0.043 2.54297,-0.125 0.84375,-0.0859 1.68359,-0.21094 2.51562,-0.375 0.83203,-0.16797 1.65625,-0.375 2.46875,-0.6211 0.8125,-0.24609 1.61328,-0.53515 2.39844,-0.85937 0.78125,-0.32422 1.55078,-0.6875 2.30078,-1.08985 0.7461,-0.40234 1.47656,-0.83984 2.17969,-1.3125 0.70703,-0.47265 1.39062,-0.98047 2.04687,-1.51953 0.65625,-0.53906 1.28516,-1.11328 1.88282,-1.71484 0.60156,-0.60156 1.17187,-1.23047 1.71093,-1.89063 0.53907,-0.65625 1.04297,-1.33984 1.51563,-2.05078 0.47266,-0.70703 0.90625,-1.4375 1.30859,-2.1875 0.39844,-0.75 0.76172,-1.51953 1.08985,-2.30469 0.32422,-0.78906 0.60937,-1.58984 0.85547,-2.40234 0.24609,-0.81641 0.45312,-1.64062 0.61718,-2.47656 0.16797,-0.83594 0.29297,-1.675784 0.375,-2.52344 0.082,-0.847656 0.125,-1.699219 0.125,-2.550781 0,-0.851563 -0.043,-1.699219 -0.125,-2.546875 -0.082,-0.847656 -0.20703,-1.6875 -0.375,-2.523438 -0.16406,-0.835937 -0.37109,-1.660156 -0.61718,-2.476562 -0.2461,-0.8125 -0.53125,-1.613282 -0.85547,-2.402344 -0.32813,-0.785156 -0.69141,-1.554688 -1.08985,-2.304688 -0.40234,-0.753906 -0.83593,-1.480468 -1.30859,-2.191406 -0.47266,-0.707031 -0.97656,-1.390625 -1.51563,-2.046875 -0.53906,-0.660156 -1.10937,-1.289062 -1.71093,-1.890625 -0.59766,-0.601562 -1.22657,-1.175781 -1.88282,-1.714844 -0.65625,-0.539062 -1.33984,-1.046874 -2.04687,-1.519531 -0.70313,-0.472656 -1.43359,-0.910156 -2.17969,-1.3125 -0.75,-0.402343 -1.51953,-0.765625 -2.30078,-1.089843 -0.78516,-0.328126 -1.58594,-0.613282 -2.39844,-0.859376 -0.8125,-0.246093 -1.63672,-0.453124 -2.46875,-0.621093 -0.83203,-0.164063 -1.67187,-0.289063 -2.51562,-0.375 -0.84766,-0.08203 -1.69531,-0.125 -2.54297,-0.125 z m 0,0"
         id="path21" />
    </g>
    <path
       style="fill:#7283af;fill-opacity:1;fill-rule:nonzero;stroke:none;stroke-width:0.820635"
       d="m 200.93688,119.43238 h -28.37603 c -0.37826,0 -0.7405,-0.0705 -1.0867,-0.21478 -0.34941,-0.14425 -0.65395,-0.35262 -0.92001,-0.61868 -0.26606,-0.26607 -0.47122,-0.57381 -0.61548,-0.92322 -0.14425,-0.3462 -0.21798,-0.71165 -0.21798,-1.0867 0,-0.37826 0.0737,-0.74049 0.21798,-1.0899 0.14426,-0.34941 0.34942,-0.65715 0.61548,-0.92322 0.26606,-0.26606 0.5706,-0.47122 0.92001,-0.61547 0.3462,-0.14426 0.70844,-0.21799 1.0867,-0.21799 h 28.37603 c 0.37505,0 0.73729,0.0738 1.08349,0.21799 0.34942,0.14425 0.65395,0.34941 0.92001,0.61547 0.26607,0.26607 0.47123,0.57381 0.61548,0.92322 0.14425,0.34941 0.21798,0.71164 0.21798,1.0899 0,0.37505 -0.0737,0.7405 -0.21798,1.0867 -0.14425,0.34941 -0.34941,0.65715 -0.61548,0.92322 -0.26606,0.26606 -0.57059,0.47443 -0.92001,0.61868 -0.3462,0.14425 -0.70844,0.21478 -1.08349,0.21478 z m 0,0"
       id="path25" />
    <path
       style="fill:#7283af;fill-opacity:1;fill-rule:nonzero;stroke:none;stroke-width:0.820635"
       d="m 200.93688,133.65885 h -28.37603 c -0.37826,0 -0.7405,-0.0737 -1.0867,-0.21797 -0.34941,-0.14426 -0.65395,-0.34941 -0.92001,-0.61548 -0.26606,-0.26607 -0.47122,-0.57381 -0.61548,-0.92322 -0.14425,-0.34941 -0.21798,-0.71164 -0.21798,-1.08991 0,-0.37505 0.0737,-0.74049 0.21798,-1.0867 0.14426,-0.34941 0.34942,-0.65715 0.61548,-0.92321 0.26606,-0.26927 0.5706,-0.47443 0.92001,-0.61868 0.3462,-0.14425 0.70844,-0.21478 1.0867,-0.21478 h 28.37603 c 0.37505,0 0.73729,0.0705 1.08349,0.21478 0.34942,0.14425 0.65395,0.34941 0.92001,0.61868 0.26607,0.26606 0.47123,0.5738 0.61548,0.92321 0.14425,0.34621 0.21798,0.71165 0.21798,1.0867 0,0.37827 -0.0737,0.7405 -0.21798,1.08991 -0.14425,0.34941 -0.34941,0.65715 -0.61548,0.92322 -0.26606,0.26607 -0.57059,0.47122 -0.92001,0.61548 -0.3462,0.14425 -0.70844,0.21797 -1.08349,0.21797 z m 0,0"
       id="path27" />
  </g>
</svg>
